<svg viewBox="0 0 16 16" xmlns="http://www.w3.org/2000/svg" xmlns:xlink="http://www.w3.org/1999/xlink" width="16.000000" height="16.000000" fill="none">
	<rect id="Frame 3" width="16.000000" height="16.000000" x="0.000000" y="0.000000" />
	<path id="Vector 1" d="M1.84269 13.6842C1.87575 13.6981 1.91517 13.6969 1.96094 13.6807C1.9747 13.6761 1.98787 13.6704 2.00045 13.6636C2.03073 13.6473 2.0576 13.6247 2.08105 13.5957C2.10886 13.5623 2.12874 13.5265 2.14072 13.4882C2.14557 13.4727 2.14912 13.4568 2.15137 13.4404C2.16699 13.376 2.17676 13.3096 2.18066 13.2412C2.18652 13.1748 2.19336 13.1094 2.20117 13.0449C2.20898 13.0039 2.21289 12.9609 2.21289 12.916C2.21289 12.873 2.2168 12.8359 2.22461 12.8047C2.23242 12.7637 2.23633 12.7246 2.23633 12.6875C2.23633 12.6523 2.24023 12.6191 2.24805 12.5879C2.26367 12.4277 2.28809 12.2754 2.32129 12.1309C2.34467 12.0276 2.38458 11.936 2.44101 11.856L2.44141 11.8555C2.45336 11.8425 2.46475 11.8292 2.47557 11.8154C2.55142 11.7186 2.59961 11.6001 2.62012 11.46C2.63574 11.3721 2.65137 11.2822 2.66699 11.1904C2.68457 11.0986 2.69336 11.0049 2.69336 10.9092L2.69336 10.3994C2.69336 10.3623 2.69727 10.3281 2.70508 10.2969C2.7207 10.248 2.73242 10.2002 2.74023 10.1533L2.76367 10.0068C2.77148 9.95996 2.7793 9.91113 2.78711 9.86035C2.79492 9.80762 2.80273 9.75293 2.81055 9.69629C2.82031 9.62402 2.83105 9.5498 2.84277 9.47363C2.85449 9.39746 2.86426 9.32324 2.87207 9.25098L2.90723 9.06055C2.92285 9.01172 2.93945 8.97949 2.95703 8.96387C2.96617 8.94102 2.97798 8.92753 2.99247 8.92339C3.00275 8.92045 3.01437 8.92222 3.02734 8.92871C3.04297 8.93652 3.05664 8.94043 3.06836 8.94043C3.07984 8.94043 3.08926 8.94319 3.09661 8.9487C3.09801 8.94975 3.09934 8.9509 3.10059 8.95215C3.16504 8.99121 3.23047 9.0332 3.29688 9.07812C3.36523 9.12305 3.42773 9.16895 3.48438 9.21582C3.53125 9.24902 3.5791 9.28125 3.62793 9.3125C3.67676 9.34375 3.72461 9.37598 3.77148 9.40918C3.82812 9.44043 3.88184 9.46875 3.93262 9.49414C3.98535 9.51758 4.04004 9.54102 4.09668 9.56445C4.12012 9.57227 4.14355 9.58203 4.16699 9.59375C4.19238 9.60547 4.2168 9.61133 4.24023 9.61133C4.29688 9.62695 4.33301 9.64355 4.34863 9.66113C4.45215 9.74121 4.55176 9.81738 4.64746 9.88965C4.74316 9.95996 4.83496 10.0391 4.92285 10.127L5.30664 10.4521C5.37109 10.5088 5.43555 10.5693 5.5 10.6338C5.56445 10.6963 5.62402 10.7598 5.67871 10.8242C5.71973 10.873 5.75977 10.9199 5.79883 10.9648C5.83984 11.0078 5.87988 11.0488 5.91895 11.0879C5.95215 11.1191 5.97656 11.1396 5.99219 11.1494C6.03125 11.1572 6.07031 11.1689 6.10938 11.1846C6.15039 11.2002 6.1875 11.2158 6.2207 11.2314C6.23633 11.2393 6.25977 11.2354 6.29102 11.2197L6.3877 11.1846C6.46777 11.1611 6.53613 11.125 6.59277 11.0762C6.60684 11.0621 6.6223 11.0509 6.63918 11.0424C6.65043 11.0368 6.6623 11.0324 6.6748 11.0293C6.69141 11.0293 6.70386 11.0251 6.71216 11.0168C6.72046 11.0085 6.72461 10.9961 6.72461 10.9795C6.72461 10.9272 6.73534 10.8954 6.7568 10.8842C6.75777 10.8837 6.75876 10.8832 6.75977 10.8828C6.77617 10.8703 6.78852 10.8558 6.7968 10.8392C6.80922 10.8144 6.8125 10.785 6.80664 10.751L6.82129 10.6689C6.8291 10.5889 6.82422 10.5166 6.80664 10.4521L6.80608 10.4499C6.79019 10.3863 6.75522 10.3275 6.70117 10.2734L6.66309 10.2354C6.66268 10.2347 6.66228 10.234 6.66187 10.2333C6.6384 10.1952 6.60268 10.1646 6.55469 10.1416C6.5 10.0928 6.44629 10.0469 6.39355 10.0039C6.34277 9.95898 6.29297 9.9082 6.24414 9.85156L6.13574 9.74316C6.0621 9.66498 5.98549 9.59009 5.90593 9.51849C5.84834 9.46666 5.7892 9.41655 5.72852 9.36816C5.58398 9.25098 5.44336 9.12793 5.30664 8.99902C5.22852 8.92871 5.15137 8.85938 5.0752 8.79102C4.99902 8.72266 4.91699 8.65234 4.8291 8.58008C4.82129 8.56445 4.80664 8.54883 4.78516 8.5332C4.76562 8.51562 4.74805 8.50293 4.73242 8.49512C4.64453 8.43262 4.55859 8.36719 4.47461 8.29883C4.39062 8.23047 4.30469 8.16406 4.2168 8.09961C4.12109 8.02734 4.02441 7.95801 3.92676 7.8916C3.90099 7.8732 3.87494 7.85522 3.84861 7.83766C3.77714 7.79001 3.70358 7.74549 3.62793 7.7041L3.48438 7.5957C3.47656 7.58789 3.47266 7.58008 3.47266 7.57227C3.47266 7.56445 3.47656 7.55664 3.48438 7.54883C3.51562 7.52344 3.54492 7.50098 3.57227 7.48145L3.65137 7.42871L3.8916 7.28516C3.95605 7.23633 4.02441 7.19043 4.09668 7.14746C4.16895 7.10254 4.23633 7.05566 4.29883 7.00684C4.32422 6.99121 4.34863 6.97363 4.37207 6.9541C4.39551 6.93457 4.42383 6.91699 4.45703 6.90137C4.5293 6.86035 4.59277 6.81641 4.64746 6.76953C4.68066 6.75195 4.71094 6.73535 4.73828 6.71973C4.76562 6.7041 4.79199 6.68848 4.81738 6.67285C4.90365 6.61686 4.98757 6.59194 5.06914 6.59809C5.09284 6.59988 5.11634 6.60429 5.13965 6.61133L5.15137 6.61133C5.20094 6.625 5.24378 6.62372 5.27989 6.60747C5.28504 6.60515 5.29005 6.60253 5.29492 6.59961C5.34375 6.58398 5.39355 6.56641 5.44434 6.54688C5.49707 6.52734 5.54395 6.50098 5.58496 6.46777C5.61501 6.43773 5.64737 6.41114 5.68204 6.38803C5.69244 6.3811 5.70305 6.37447 5.71387 6.36816C5.7627 6.33887 5.80762 6.30859 5.84863 6.27734C5.85153 6.27559 5.8544 6.2738 5.85726 6.27198C5.90837 6.23946 5.95334 6.1973 5.99219 6.14551C6.00781 6.12793 6.02344 6.11133 6.03906 6.0957C6.05664 6.08008 6.07324 6.06445 6.08887 6.04883C6.10449 6.02344 6.13184 5.99121 6.1709 5.95215C6.21191 5.9209 6.25195 5.88574 6.29102 5.84668C6.33203 5.80566 6.36816 5.76465 6.39941 5.72363L6.70117 5.32812C6.80469 5.19141 6.88477 5.05176 6.94141 4.90918C6.96676 4.84941 6.9812 4.789 6.98473 4.72797C6.9888 4.65738 6.97826 4.58595 6.95312 4.51367C6.92773 4.44922 6.91504 4.38867 6.91504 4.33203C6.89941 4.30078 6.88379 4.28125 6.86816 4.27344L6.8623 4.26758C6.8608 4.26532 6.85901 4.2635 6.85693 4.26212C6.8536 4.2599 6.84953 4.25879 6.84473 4.25879C6.83102 4.25556 6.82014 4.24968 6.81209 4.24112C6.80065 4.22896 6.79492 4.21141 6.79492 4.18848L6.79492 4.15332L6.78906 4.15332L6.78695 4.15285C6.78445 4.1516 6.7832 4.14785 6.7832 4.1416C6.75977 4.12891 6.73901 4.11353 6.72095 4.09546C6.70288 4.07739 6.6875 4.05664 6.6748 4.0332C6.6748 4.02688 6.67329 4.02169 6.67025 4.01764C6.66485 4.01044 6.65465 4.00684 6.63965 4.00684C6.6084 4.02441 6.58887 4.0332 6.58105 4.0332C6.56638 4.0332 6.55783 4.03048 6.5554 4.02503C6.55493 4.02396 6.55469 4.02277 6.55469 4.02148C6.54655 4.00012 6.53523 3.98644 6.52074 3.98045C6.5074 3.97493 6.49137 3.97591 6.47266 3.9834C6.42383 3.9834 6.3877 3.97949 6.36426 3.97168C6.33301 3.96387 6.30078 3.95801 6.26758 3.9541C6.23633 3.9502 6.2002 3.94824 6.15918 3.94824C6.15397 3.94303 6.14876 3.94043 6.14355 3.94043C6.14095 3.94043 6.13835 3.94108 6.13574 3.94238C6.12793 3.94629 6.11621 3.94824 6.10059 3.94824C6.07834 3.9518 6.05711 3.95779 6.03689 3.96622C6.01273 3.97628 5.99001 3.98982 5.96875 4.00684C5.86328 4.08691 5.7793 4.16309 5.7168 4.23535L5.32129 4.66895C5.30371 4.68457 5.28711 4.7002 5.27148 4.71582C5.25586 4.73145 5.24023 4.74805 5.22461 4.76562C5.15234 4.85352 5.07422 4.9375 4.99023 5.01758C4.90625 5.0957 4.82031 5.1748 4.73242 5.25488C4.66016 5.31934 4.58594 5.38379 4.50977 5.44824C4.43359 5.5127 4.35547 5.57715 4.27539 5.6416C4.26758 5.64941 4.26172 5.65332 4.25781 5.65332L4.25195 5.65332C4.16406 5.71582 4.07617 5.7793 3.98828 5.84375L3.72461 6.03711C3.62891 6.10938 3.53223 6.18164 3.43457 6.25391C3.33887 6.32422 3.24707 6.39551 3.15918 6.46777C3.13574 6.49121 3.1084 6.51172 3.07715 6.5293C3.07501 6.53144 3.07265 6.53299 3.07007 6.53396C3.06323 6.53652 3.05485 6.53497 3.04492 6.5293C3.03479 6.52254 3.02903 6.51505 3.02766 6.50684C3.02745 6.50555 3.02734 6.50425 3.02734 6.50293C3.02734 6.49668 3.02609 6.49293 3.02359 6.49168C3.02297 6.49137 3.02227 6.49121 3.02148 6.49121L3.01938 6.49074C3.01688 6.48949 3.01562 6.48574 3.01562 6.47949C3.02344 6.4248 3.02734 6.37305 3.02734 6.32422C3.02734 6.27539 3.03125 6.22754 3.03906 6.18066C3.04688 6.15723 3.05078 6.13379 3.05078 6.11035L3.05078 5.97559C3.05078 5.95215 3.05566 5.92871 3.06543 5.90527C3.08105 5.8252 3.09277 5.74316 3.10059 5.65918C3.1084 5.5752 3.12012 5.49316 3.13574 5.41309L3.13574 5.36328C3.14355 5.30859 3.15332 5.25293 3.16504 5.19629C3.17676 5.13965 3.1875 5.08398 3.19727 5.0293C3.21289 4.98828 3.22266 4.9502 3.22656 4.91504C3.23047 4.87793 3.23633 4.84375 3.24414 4.8125C3.25195 4.75586 3.25977 4.70215 3.26758 4.65137C3.27539 4.59863 3.2793 4.54395 3.2793 4.4873L3.2793 4.36426C3.2793 4.33387 3.27572 4.30438 3.26857 4.27577C3.26515 4.2621 3.26091 4.24862 3.25586 4.23535C3.24805 4.19629 3.24219 4.16113 3.23828 4.12988C3.23438 4.09668 3.23242 4.06445 3.23242 4.0332C3.24023 3.94531 3.23242 3.84863 3.20898 3.74316C3.20117 3.71973 3.19727 3.68848 3.19727 3.64941C3.19727 3.60059 3.17676 3.54785 3.13574 3.49121C3.10941 3.44672 3.07716 3.41003 3.03901 3.38116C2.9951 3.34793 2.94336 3.32504 2.88379 3.3125C2.83496 3.29688 2.78613 3.28516 2.7373 3.27734C2.69043 3.26953 2.63965 3.27344 2.58496 3.28906C2.56738 3.28906 2.55469 3.29297 2.54688 3.30078C2.50157 3.30078 2.45962 3.30882 2.42102 3.32491C2.41302 3.32824 2.40517 3.33192 2.39746 3.33594C2.35449 3.35938 2.3125 3.3877 2.27148 3.4209C2.14453 3.54004 2.05664 3.67188 2.00781 3.81641C1.97656 3.88867 1.9502 3.96094 1.92871 4.0332C1.90918 4.10547 1.8916 4.18066 1.87598 4.25879L1.80273 4.72754C1.79492 4.78418 1.78711 4.84668 1.7793 4.91504C1.77148 4.9834 1.76758 5.04883 1.76758 5.11133L1.76758 5.16113C1.75977 5.19238 1.75391 5.22656 1.75 5.26367C1.74609 5.29883 1.74414 5.33203 1.74414 5.36328C1.74414 5.4043 1.74219 5.44336 1.73828 5.48047C1.73438 5.51562 1.73242 5.55273 1.73242 5.5918C1.73242 5.61523 1.73047 5.6377 1.72656 5.65918C1.72344 5.6748 1.72406 5.68918 1.72844 5.7023C1.72953 5.70559 1.73086 5.70879 1.73242 5.71191C1.74023 5.74805 1.74414 5.78418 1.74414 5.82031C1.74414 5.85645 1.74023 5.89258 1.73242 5.92871C1.71869 5.96303 1.71703 5.99208 1.72743 6.01585C1.72886 6.01913 1.73053 6.02231 1.73242 6.02539L1.73242 6.18066C1.72461 6.2041 1.7207 6.24023 1.7207 6.28906L1.7207 6.75781C1.7207 6.78125 1.7168 6.80469 1.70898 6.82812C1.70117 6.9082 1.69434 6.99023 1.68848 7.07422C1.68457 7.1582 1.6875 7.24023 1.69727 7.32031C1.69727 7.42383 1.69434 7.52637 1.68848 7.62793C1.68457 7.72754 1.6875 7.8291 1.69727 7.93262L1.69727 8.40137C1.6875 8.43262 1.68262 8.4707 1.68262 8.51562C1.68262 8.55859 1.67871 8.60059 1.6709 8.6416C1.6709 8.67285 1.66895 8.70312 1.66504 8.73242C1.66113 8.75977 1.66309 8.79297 1.6709 8.83203C1.67871 8.88867 1.68457 8.94727 1.68848 9.00781C1.69434 9.06641 1.68848 9.12793 1.6709 9.19238C1.66309 9.27246 1.65723 9.35449 1.65332 9.43848C1.64941 9.52246 1.63965 9.6084 1.62402 9.69629C1.63184 9.78418 1.62988 9.87012 1.61816 9.9541C1.60645 10.0381 1.59668 10.124 1.58887 10.2119C1.58105 10.292 1.5752 10.376 1.57129 10.4639C1.56738 10.5518 1.55664 10.6396 1.53906 10.7275C1.53125 10.8154 1.52344 10.9053 1.51562 10.9971C1.50781 11.0889 1.49609 11.1797 1.48047 11.2695L1.48047 11.3662C1.48047 11.3975 1.48438 11.4326 1.49219 11.4717C1.51562 11.6006 1.55176 11.7168 1.60059 11.8203C1.65527 11.9316 1.68262 12.0352 1.68262 12.1309C1.69238 12.252 1.69434 12.3701 1.68848 12.4854C1.68457 12.6025 1.68262 12.7168 1.68262 12.8281C1.6748 12.8848 1.6709 12.9404 1.6709 12.9951C1.6709 13.0518 1.66699 13.1123 1.65918 13.1768C1.65918 13.1924 1.66309 13.208 1.6709 13.2236C1.6709 13.2568 1.67285 13.2871 1.67676 13.3145C1.68066 13.3418 1.68262 13.3721 1.68262 13.4053C1.7002 13.4854 1.72852 13.5527 1.76758 13.6074C1.78723 13.6458 1.81227 13.6714 1.84269 13.6842Z" fill="rgb(0,239,255)" fill-rule="evenodd" />
	<path id="Vector 2" d="M8.58202 12.5756C8.61608 12.6185 8.66833 12.647 8.73877 12.6611C8.74808 12.6611 8.75711 12.66 8.76587 12.6578C8.77365 12.6559 8.78122 12.6531 8.78857 12.6494C8.7987 12.6454 8.80851 12.6409 8.818 12.6357C8.86897 12.6081 8.91092 12.5638 8.94385 12.5029C8.96729 12.4229 8.9751 12.3477 8.96729 12.2773L8.96729 12.2041C8.96729 12.1807 8.97119 12.1562 8.979 12.1309C8.979 12.1152 8.98096 12.1035 8.98486 12.0957C8.98877 12.0879 8.99072 12.0801 8.99072 12.0723C8.98291 12.0078 8.98096 11.9453 8.98486 11.8848C8.98877 11.8262 8.99072 11.7646 8.99072 11.7002L8.99072 11.4365C8.99072 11.404 8.99445 11.3724 9.0019 11.3416C9.01636 11.282 9.04486 11.2257 9.0874 11.1729C9.11084 11.1475 9.13232 11.1191 9.15186 11.0879C9.17334 11.0566 9.19189 11.0283 9.20752 11.0029C9.24854 10.9639 9.27881 10.9209 9.29834 10.874C9.31787 10.8252 9.33154 10.7764 9.33936 10.7275C9.35498 10.6631 9.36475 10.6035 9.36865 10.5488C9.36909 10.5425 9.3693 10.5362 9.3693 10.5299C9.3693 10.4796 9.35541 10.4293 9.32764 10.3789C9.3042 10.2832 9.29639 10.1992 9.3042 10.127C9.31224 10.0988 9.3177 10.0704 9.32057 10.0417C9.32327 10.0147 9.32367 9.98744 9.32178 9.95996C9.31787 9.90332 9.31592 9.84766 9.31592 9.79297C9.31592 9.65625 9.32764 9.51562 9.35107 9.37109L9.38916 9.10742C9.39697 9.04297 9.40479 8.97754 9.4126 8.91113C9.42041 8.84277 9.42822 8.78027 9.43604 8.72363C9.4751 8.50098 9.49951 8.28906 9.50928 8.08789C9.50928 8.04883 9.51123 8.01367 9.51514 7.98242C9.51904 7.94922 9.5249 7.91602 9.53271 7.88281C9.54053 7.82031 9.54639 7.75684 9.55029 7.69238C9.5542 7.62793 9.56006 7.56348 9.56787 7.49902L9.60303 7.10352C9.62061 7.01562 9.6333 6.92773 9.64111 6.83984C9.64893 6.75195 9.65674 6.66797 9.66455 6.58789C9.66455 6.57227 9.66846 6.56055 9.67627 6.55273L9.67627 6.54102L9.69971 6.51758C9.70752 6.51758 9.71338 6.51953 9.71729 6.52344C9.72119 6.52734 9.72314 6.5332 9.72314 6.54102C9.73788 6.59201 9.75885 6.63906 9.78608 6.68216C9.80578 6.71335 9.82874 6.74247 9.85498 6.76953C9.88818 6.80078 9.9126 6.84473 9.92822 6.90137C9.95752 6.96729 9.98352 7.0343 10.0062 7.10242C10.0138 7.12512 10.021 7.14795 10.0278 7.1709C10.0571 7.2627 10.0874 7.35254 10.1187 7.44043C10.1362 7.50488 10.1567 7.57129 10.1802 7.63965C10.2036 7.70605 10.2231 7.77539 10.2388 7.84766C10.2642 7.91211 10.2866 7.98047 10.3062 8.05273C10.3257 8.125 10.3433 8.19727 10.3589 8.26953L10.397 8.36328C10.436 8.46875 10.4712 8.57324 10.5024 8.67676C10.5356 8.78027 10.5718 8.88379 10.6108 8.9873L10.7573 9.40918C10.7772 9.47725 10.8028 9.54249 10.834 9.60491C10.8395 9.61593 10.8452 9.62685 10.8511 9.6377C10.8921 9.70801 10.9282 9.78711 10.9595 9.875L10.9653 9.88379C10.9692 9.8877 10.9712 9.89355 10.9712 9.90137L11.188 10.2119C11.2524 10.3076 11.3442 10.3955 11.4634 10.4756C11.5182 10.506 11.5715 10.519 11.6233 10.5145C11.6545 10.5118 11.6852 10.5027 11.7153 10.4873C11.7485 10.4717 11.7788 10.4561 11.8062 10.4404C11.8335 10.4248 11.8638 10.4092 11.897 10.3936C11.9118 10.388 11.9261 10.3815 11.9399 10.3741C12.0084 10.3378 12.0654 10.2798 12.1108 10.2002C12.1264 10.1863 12.1366 10.1709 12.1415 10.154C12.1421 10.1519 12.1426 10.1497 12.1431 10.1475C12.147 10.126 12.1528 10.1113 12.1606 10.1035L12.1958 10.0215C12.2192 9.98828 12.2397 9.93555 12.2573 9.86328C12.2651 9.83984 12.2749 9.81836 12.2866 9.79883C12.2983 9.7793 12.3081 9.75684 12.3159 9.73145C12.3409 9.70742 12.3572 9.68109 12.3648 9.65244C12.372 9.6252 12.3714 9.59587 12.3628 9.56445L12.3628 9.49121C12.3706 9.41895 12.3804 9.34766 12.3921 9.27734C12.4058 9.20508 12.4165 9.13281 12.4243 9.06055C12.4399 8.96484 12.4595 8.86914 12.4829 8.77344C12.5083 8.67578 12.5288 8.5791 12.5444 8.4834C12.5601 8.4209 12.5737 8.35938 12.5854 8.29883C12.5972 8.23828 12.6118 8.17969 12.6294 8.12305C12.645 8.06055 12.6606 7.99707 12.6763 7.93262L12.7231 7.73926C12.7563 7.62793 12.7847 7.51465 12.8081 7.39941C12.8315 7.28223 12.8599 7.17188 12.8931 7.06836L12.9282 6.94824L12.9286 6.94602C12.9307 6.93969 12.9423 6.93652 12.9634 6.93652C12.979 6.95215 12.9946 6.97266 13.0103 6.99805C13.0278 7.02148 13.0405 7.04492 13.0483 7.06836L13.0835 7.17676C13.1323 7.28809 13.1763 7.40234 13.2153 7.51953C13.2563 7.63477 13.2925 7.75586 13.3237 7.88281C13.3472 7.98828 13.3726 8.09473 13.3999 8.20215C13.4292 8.30957 13.4478 8.41992 13.4556 8.5332L13.5757 9.30078C13.5913 9.38867 13.6069 9.47852 13.6226 9.57031C13.6401 9.66211 13.6567 9.75195 13.6724 9.83984L13.7192 10.1035C13.7271 10.1602 13.7349 10.2129 13.7427 10.2617C13.7524 10.3086 13.7612 10.3604 13.769 10.417L13.8892 11.1113C13.897 11.1523 13.9028 11.1953 13.9067 11.2402C13.9106 11.2832 13.9165 11.3242 13.9243 11.3633L13.9595 11.5918C13.9595 11.625 13.9653 11.6553 13.9771 11.6826C13.9888 11.71 13.9995 11.7402 14.0093 11.7734C14.0203 11.7954 14.032 11.8169 14.0445 11.838C14.1318 11.9856 14.2558 12.1116 14.4165 12.2158C14.4576 12.2423 14.4987 12.2556 14.5398 12.2556C14.5866 12.2556 14.6334 12.2384 14.6802 12.2041C14.7192 12.1807 14.7544 12.1504 14.7856 12.1133C14.8188 12.0781 14.8472 12.0439 14.8706 12.0107C14.9038 11.9561 14.9321 11.9004 14.9556 11.8438C14.9643 11.8226 14.9714 11.8011 14.9769 11.7792C14.9861 11.7423 14.9907 11.7043 14.9907 11.665L15.0171 11.5684C15.0327 11.5039 15.0327 11.4443 15.0171 11.3896L14.9321 10.9092C14.9243 10.8916 14.9204 10.877 14.9204 10.8652C14.9204 10.8582 14.919 10.8519 14.9162 10.8462C14.9143 10.8425 14.9118 10.8391 14.9087 10.8359C14.902 10.6994 14.8833 10.5657 14.8525 10.4349C14.8472 10.4122 14.8415 10.3897 14.8354 10.3672C14.8276 10.3516 14.8237 10.3242 14.8237 10.2852L14.7886 9.99512C14.7729 9.94824 14.7651 9.91309 14.7651 9.88965C14.7554 9.7998 14.7446 9.71094 14.7329 9.62305C14.7212 9.53516 14.7075 9.45117 14.6919 9.37109C14.6685 9.25195 14.6479 9.13281 14.6304 9.01367C14.6147 8.89258 14.5991 8.77246 14.5835 8.65332C14.5679 8.56543 14.5522 8.47363 14.5366 8.37793C14.521 8.28027 14.5044 8.18359 14.4868 8.08789C14.4712 8.02344 14.4556 7.95605 14.4399 7.88574C14.4243 7.81348 14.4048 7.74512 14.3813 7.68066C14.3716 7.66504 14.3667 7.64062 14.3667 7.60742C14.3433 7.51953 14.3218 7.43164 14.3022 7.34375C14.2827 7.25586 14.2563 7.16797 14.2231 7.08008C14.1997 6.99219 14.1753 6.90625 14.1499 6.82227C14.1265 6.73828 14.0952 6.65625 14.0562 6.57617C14.0483 6.56836 14.0444 6.55664 14.0444 6.54102C14.0034 6.41211 13.9546 6.28809 13.8979 6.16895C13.8433 6.04785 13.7837 5.93164 13.7192 5.82031C13.7087 5.79257 13.6959 5.76616 13.6808 5.7411C13.6736 5.72911 13.6659 5.71743 13.6577 5.70605C13.6343 5.6709 13.6108 5.63672 13.5874 5.60352C13.5562 5.55664 13.5239 5.51172 13.4907 5.46875C13.4595 5.42383 13.4282 5.37695 13.397 5.32812C13.3707 5.28692 13.3421 5.24771 13.3111 5.21049C13.2936 5.1895 13.2754 5.16914 13.2563 5.14941C13.2056 5.09277 13.1519 5.03613 13.0952 4.97949C13.064 4.94043 13.0122 4.91309 12.9399 4.89746C12.896 4.88477 12.8521 4.87842 12.8081 4.87842C12.7642 4.87842 12.7202 4.88477 12.6763 4.89746C12.5799 4.92208 12.4977 4.9634 12.4298 5.02141C12.3685 5.07387 12.3188 5.13997 12.2808 5.21973C12.2527 5.26925 12.2323 5.3206 12.2198 5.37379C12.2141 5.39822 12.21 5.42304 12.2075 5.44824C12.2075 5.46387 12.2056 5.48047 12.2017 5.49805C12.1978 5.51367 12.1919 5.5293 12.1841 5.54492C12.1606 5.67188 12.1323 5.7998 12.0991 5.92871C12.0679 6.05566 12.0366 6.1875 12.0054 6.32422C11.9956 6.39648 11.979 6.4707 11.9556 6.54688C11.9321 6.62305 11.9126 6.69727 11.897 6.76953C11.8638 6.88867 11.8335 7.00879 11.8062 7.12988C11.7788 7.24902 11.7446 7.36816 11.7036 7.4873C11.6802 7.5752 11.6558 7.66602 11.6304 7.75977C11.6069 7.85156 11.5874 7.94141 11.5718 8.0293C11.5562 8.06055 11.5483 8.08398 11.5483 8.09961L11.5249 8.12305C11.5151 8.12305 11.508 8.12061 11.5037 8.11573C11.5002 8.11188 11.4985 8.10651 11.4985 8.09961C11.4751 8.02734 11.4497 7.9541 11.4224 7.87988C11.395 7.80371 11.3687 7.72559 11.3433 7.64551C11.312 7.53223 11.2798 7.41992 11.2466 7.30859C11.2153 7.19727 11.1802 7.08887 11.1411 6.9834C11.1079 6.90332 11.0796 6.8252 11.0562 6.74902C11.0327 6.67285 11.0044 6.5957 10.9712 6.51758C10.9634 6.5 10.9478 6.46582 10.9243 6.41504C10.905 6.37166 10.9016 6.34348 10.9141 6.3305C10.9167 6.3277 10.9202 6.3256 10.9243 6.32422C10.952 6.30349 10.9643 6.28581 10.9614 6.27119C10.961 6.26928 10.9604 6.26743 10.9595 6.26562C10.9549 6.25074 10.9476 6.23888 10.9377 6.23003C10.9307 6.22379 10.9223 6.21905 10.9126 6.21582C10.902 6.21582 10.8924 6.21384 10.8836 6.20989C10.8664 6.20214 10.8526 6.18679 10.8422 6.16385C10.8411 6.15778 10.8324 6.1253 10.8159 6.06641C10.7925 5.98242 10.7769 5.93652 10.769 5.92871C10.7612 5.91309 10.7524 5.89746 10.7427 5.88184C10.7359 5.86663 10.735 5.85507 10.7399 5.84718C10.7407 5.84595 10.7416 5.8448 10.7427 5.84375C10.7543 5.83304 10.7616 5.8213 10.7646 5.80855C10.7682 5.7934 10.7658 5.77682 10.7573 5.75879C10.7573 5.73535 10.7407 5.7002 10.7075 5.65332C10.6763 5.62012 10.6528 5.5918 10.6372 5.56836C10.6118 5.51953 10.5894 5.47168 10.5698 5.4248C10.5503 5.37598 10.5288 5.32422 10.5054 5.26953C10.4565 5.17188 10.4097 5.07324 10.3647 4.97363C10.3218 4.87402 10.272 4.77246 10.2153 4.66895C10.133 4.51105 10.0392 4.36183 9.93375 4.22127C9.91659 4.19839 9.89912 4.17574 9.88135 4.15332C9.83252 4.10449 9.77979 4.03223 9.72314 3.93652L9.61475 3.79297C9.56042 3.74373 9.5024 3.71295 9.4407 3.70061C9.43141 3.69875 9.42205 3.69731 9.4126 3.69629C9.38721 3.69629 9.35889 3.68848 9.32764 3.67285C9.29639 3.66504 9.26807 3.66309 9.24268 3.66699C9.21924 3.6709 9.19189 3.67676 9.16064 3.68457C9.08395 3.6982 9.01488 3.72411 8.95343 3.76228C8.87403 3.8116 8.80737 3.8814 8.75342 3.97168C8.69678 4.05176 8.65576 4.13574 8.63037 4.22363C8.60693 4.31152 8.61182 4.4082 8.64502 4.51367C8.64502 4.52148 8.64893 4.5293 8.65674 4.53711C8.70361 4.72852 8.71924 4.92773 8.70361 5.13477C8.6958 5.18359 8.68994 5.23047 8.68604 5.27539C8.68213 5.31836 8.68018 5.36426 8.68018 5.41309L8.68018 5.68262C8.68018 5.77441 8.67236 5.86426 8.65674 5.95215C8.64893 6.04004 8.64014 6.12988 8.63037 6.22168C8.62256 6.31348 8.61084 6.40332 8.59521 6.49121L8.56006 6.69629C8.55225 6.79199 8.54248 6.8877 8.53076 6.9834C8.51904 7.0791 8.50049 7.1709 8.4751 7.25879C8.4751 7.2998 8.47119 7.33203 8.46338 7.35547C8.45557 7.41992 8.44971 7.48633 8.4458 7.55469C8.44189 7.62305 8.43213 7.68848 8.4165 7.75098C8.40869 7.79199 8.40088 7.83496 8.39307 7.87988C8.38525 7.92285 8.38135 7.96387 8.38135 8.00293C8.38135 8.05176 8.37646 8.08789 8.3667 8.11133C8.35889 8.16797 8.35107 8.22656 8.34326 8.28711C8.33545 8.3457 8.32764 8.40723 8.31982 8.47168L8.29639 8.73535C8.28857 8.82324 8.27686 8.91113 8.26123 8.99902C8.25146 9.08691 8.23877 9.17773 8.22314 9.27148C8.20752 9.36328 8.19189 9.45703 8.17627 9.55273C8.16846 9.625 8.15381 9.69922 8.13232 9.77539C8.11279 9.85156 8.09521 9.92871 8.07959 10.0068C8.06396 10.0557 8.05615 10.0957 8.05615 10.127C8.04834 10.2246 8.04443 10.3213 8.04443 10.417C8.04443 10.5127 8.04834 10.6123 8.05615 10.7158C8.05615 10.7959 8.07568 10.876 8.11475 10.9561L8.26123 11.2549C8.27686 11.2803 8.28857 11.3027 8.29639 11.3223C8.3042 11.3418 8.31201 11.3643 8.31982 11.3896C8.35107 11.4678 8.37451 11.543 8.39014 11.6152C8.40771 11.6875 8.42041 11.7637 8.42822 11.8438C8.43604 11.9082 8.44385 11.9746 8.45166 12.043C8.45947 12.1113 8.46729 12.1768 8.4751 12.2393C8.48291 12.2881 8.49268 12.3379 8.50439 12.3887C8.51335 12.4232 8.52441 12.4569 8.53755 12.4898C8.54448 12.5071 8.55198 12.5242 8.56006 12.541C8.56626 12.5534 8.57358 12.5649 8.58202 12.5756Z" fill="rgb(255,205,0)" fill-rule="evenodd" />
</svg>
